<svg width="355" height="392" viewBox="0 0 355 392" fill="none" xmlns="http://www.w3.org/2000/svg">
<path d="M74.6594 377.618C76.8335 336.598 80.6558 313.21 81.6706 305.092C83.0372 294.159 84.4038 259.974 84.4038 255.419C84.4038 250.864 76.2045 177.07 75.7489 173.881C75.2934 170.693 61.847 201.075 61.7422 202.751C61.6375 204.426 35.8574 189.279 21.9566 186.962C14.3368 185.692 7.8641 181.706 3.59536 178.167C0.694728 175.763 0.157876 171.72 1.67595 168.272C11.5162 145.921 28.3383 108.063 32.6664 99.6953C38.5619 88.2972 43.6536 50.9586 61.7422 39.1675C79.8309 27.3764 121.886 12.834 128.961 4.97325C130.35 3.63998 131.441 2.64216 132.284 1.90646C133.781 0.599574 135.705 0.372036 137.61 0.937724C147.853 3.9798 168.892 9.66952 178.091 9.24986C179.075 9.20497 180.045 9.2064 181.029 9.25124C189.904 9.65568 207.985 4.00932 217.685 0.964233C219.581 0.369102 221.506 0.599574 223.002 1.90646C223.845 2.64216 224.937 3.63998 226.326 4.97325C233.4 12.834 275.455 27.3764 293.544 39.1675C311.633 50.9586 316.724 88.2972 322.62 99.6953C326.948 108.063 343.77 145.921 353.61 168.272C355.128 171.72 354.592 175.763 351.691 178.167C347.422 181.706 340.949 185.692 333.33 186.962C319.429 189.279 293.649 204.426 293.544 202.751C293.439 201.075 279.993 170.693 279.537 173.881C279.082 177.07 270.882 250.864 270.882 255.419C270.882 259.974 272.249 294.159 273.616 305.092C274.63 313.21 278.453 336.598 280.627 377.618C280.915 383.064 276.738 387.711 271.292 388.012C264.742 388.375 257.742 388.722 255.227 388.722C250.301 388.722 219.454 386.371 213.028 388.722C207.906 390.596 187.72 391.173 179.643 391.229C179.673 391.229 179.703 391.229 179.733 391.23H179.553C179.583 391.229 179.613 391.229 179.643 391.229C171.537 391.173 147.381 390.596 142.259 388.722C135.832 386.371 104.986 388.722 100.059 388.722C97.544 388.722 90.5443 388.375 83.9938 388.012C78.5484 387.711 74.3707 383.064 74.6594 377.618Z" fill="white"/>
</svg>
